<svg width="93" height="40" viewBox="0 0 93 40" fill="none" xmlns="http://www.w3.org/2000/svg">
<path d="M63.1023 23.9192C63.2932 23.8273 63.9384 23.5331 64.1073 23.4482C64.2824 23.3703 64.2413 23.2267 64.2167 23.1549C63.8351 22.0974 63.6328 20.9647 63.6328 19.7767C63.6328 14.2266 68.1395 9.71912 73.6869 9.71912C79.2222 9.71912 83.7323 14.2266 83.7323 19.7767C83.7323 21.1984 83.4364 22.5474 82.9024 23.7739C82.8709 23.8378 82.8262 23.9857 82.9864 24.0514C83.1484 24.1188 83.8706 24.4427 84.0054 24.5013C84.149 24.5609 84.2374 24.5372 84.3057 24.3718C84.9255 22.9685 85.2599 21.4094 85.2599 19.7767C85.2599 13.3853 80.0678 8.18715 73.6869 8.18715C67.2938 8.18715 62.1044 13.3853 62.1044 19.7767C62.1044 21.1844 62.3574 22.529 62.8196 23.7835C62.8476 23.8588 62.908 24.0093 63.1023 23.9192Z" fill="#F9A929"/>
<path fill-rule="evenodd" clip-rule="evenodd" d="M93.0001 0H54.3622V40H93.0001V0ZM65.6161 22.7559C65.5312 22.7946 65.454 22.8298 65.3994 22.8552C65.2392 22.9278 65.1656 22.8421 65.1201 22.6994C64.8023 21.7811 64.6325 20.798 64.6325 19.772C64.6325 14.7778 68.6883 10.7167 73.6816 10.7167C78.6697 10.7167 82.7281 14.7778 82.7281 19.772C82.7281 21.0448 82.4646 22.2555 81.9902 23.355C81.9192 23.5021 81.83 23.538 81.6908 23.4802C81.6047 23.4454 81.3874 23.3495 81.2053 23.2691C81.0949 23.2204 80.9974 23.1774 80.9502 23.1572C80.8364 23.1012 80.8416 22.9681 80.8731 22.9007C81.2881 21.9421 81.5227 20.8829 81.5227 19.772C81.5227 15.4466 78.0009 11.923 73.6816 11.923C69.351 11.923 65.8371 15.4466 65.8371 19.772C65.8371 20.615 65.9631 21.4283 66.2144 22.1916C66.2713 22.3492 66.2966 22.4341 66.1049 22.5287C65.993 22.5844 65.7887 22.6773 65.6163 22.7558L65.6162 22.7559L65.6161 22.7559ZM59.9719 25.3581C60.1951 25.2487 61.5616 24.6193 61.7989 24.5134C62.0153 24.4173 61.9522 24.2569 61.9118 24.1542C61.9073 24.1427 61.9031 24.1319 61.8995 24.122C61.397 22.7625 61.1213 21.3015 61.1213 19.7721C61.1213 12.8397 66.7519 7.20647 73.6799 7.20647C80.6001 7.20647 86.2325 12.8397 86.2325 19.7721C86.2325 21.5256 85.8709 23.1941 85.2214 24.713C85.1794 24.8049 85.133 24.9931 85.3606 25.0903C85.4259 25.1187 85.5855 25.1889 85.7832 25.2758L85.7843 25.2763L85.7844 25.2763L85.7847 25.2764C86.262 25.4863 86.96 25.7932 87.0886 25.8457C87.2672 25.9342 87.402 25.9149 87.5246 25.6444C88.2914 23.8375 88.7116 21.8521 88.7116 19.7721C88.7116 11.475 81.9675 4.71767 73.6799 4.71767C65.3845 4.71767 58.6404 11.475 58.6404 19.7721C58.6404 21.6796 59.0002 23.5058 59.6471 25.1839L59.6521 25.1961C59.6912 25.2925 59.758 25.4571 59.9719 25.3581ZM75.2968 14.8964C75.2968 15.7858 74.5702 16.5054 73.6843 16.5054C72.7888 16.5054 72.0762 15.7858 72.0762 14.8964C72.0762 13.9991 72.7888 13.2787 73.6843 13.2787C74.5702 13.2787 75.2968 13.9991 75.2968 14.8964ZM74.2795 24.9484C74.5929 24.9484 74.8486 24.6919 74.8486 24.3777V20.8427C74.8617 20.3972 75.1795 19.8203 75.4911 19.485L78.8194 16.1593C79.0462 15.9326 79.0462 15.5666 78.8194 15.3487L78.2136 14.742C77.9904 14.5153 77.6262 14.5153 77.4056 14.742L74.4003 17.7534C74.1999 17.946 74.0633 18.0686 73.6886 18.0686C73.3166 18.0686 73.1748 17.946 72.9804 17.7534L69.9699 14.742C69.744 14.5153 69.3869 14.5153 69.1628 14.742L68.5578 15.3487C68.3346 15.5666 68.3346 15.9326 68.5578 16.1593L71.8862 19.485C72.2013 19.8203 72.5138 20.3972 72.5278 20.8427V24.3777C72.5278 24.6919 72.7826 24.9484 73.0977 24.9484H74.2795ZM83.0124 27.5645C83.5455 27.0752 84.3195 26.3649 84.7775 26.1971C86.1247 25.7165 87.0483 26.7258 86.4626 27.6687C83.811 31.9372 79.0785 34.7989 73.6807 34.7989C68.5946 34.7989 64.1002 32.2689 61.3777 28.3979C60.6073 27.2984 60.5522 26.5902 61.3366 26.1262C62.4702 25.4486 64.3427 24.3762 65.6541 24.1399C66.8735 23.9184 68.5184 23.9464 70.6518 25.1002C71.1334 25.3593 71.5811 25.6686 72.0265 25.9763C72.892 26.5742 73.7488 27.1661 74.8284 27.3719C75.998 27.5969 79.0593 28.4005 78.3756 30.2616C77.6843 32.1466 75.2895 31.1252 72.9994 30.1484C72.4242 29.9031 71.8557 29.6606 71.3224 29.4676C70.3638 29.121 69.3448 28.8881 69.3229 29.2742C69.3077 29.515 69.5386 29.5825 70.0829 29.7417C70.3181 29.8105 70.6119 29.8965 70.9696 30.0209C71.8642 30.3312 72.4467 30.6079 72.9879 30.8649C73.5444 31.1292 74.0571 31.3727 74.8205 31.6106C76.1196 32.0116 77.6253 32.4169 78.6172 31.2237C79.6826 29.9342 79.1573 28.3016 77.5168 27.6004C76.5917 27.2046 75.8593 27.0183 75.291 26.8737C74.8536 26.7624 74.5135 26.6758 74.2576 26.5376C74.8681 26.1448 75.4553 25.6726 75.9894 25.2432C76.5597 24.7846 77.0695 24.3747 77.4827 24.1618C78.3195 23.7293 79.1153 24.448 78.5603 25.0669C78.5117 25.12 78.4372 25.2055 78.3539 25.301C78.1913 25.4876 77.9951 25.7126 77.8932 25.8093L77.9886 25.7856C78.1765 25.6402 78.3629 25.4818 78.5528 25.3203C78.9275 25.0018 79.316 24.6715 79.757 24.406C80.6963 23.8414 81.7879 24.5688 81.2706 25.3418C81.085 25.6228 80.4144 26.5079 80.2507 26.6654L80.3689 26.6383C80.5052 26.5326 80.6955 26.3558 80.9037 26.1623C81.2541 25.8365 81.6556 25.4633 81.9367 25.3024C83.1299 24.617 84.2111 25.5151 83.6377 26.465C83.4477 26.7801 82.722 27.6993 82.5548 27.8884L82.6817 27.8647C82.7735 27.7838 82.8862 27.6804 83.0124 27.5645Z" fill="white"/>
<path d="M41.6652 36.5528C41.6669 36.9844 43.2103 37.4536 44.0183 37.4536C44.8289 37.4536 45.9573 37.1498 46.5412 35.7177C47.1557 34.2058 49.6988 25.4946 49.6988 25.4946L49.9842 25.4929C50.5558 25.3904 50.7616 25.0464 50.7616 24.1727C50.7616 23.8628 50.7222 23.8348 50.4648 23.8348H48.3804C48.1765 23.841 48.1581 23.8725 48.0951 24.0712L46.3574 30.7909C46.3574 30.7909 44.5707 24.0712 44.5707 24.0721C44.5138 23.8725 44.4866 23.841 44.287 23.8348H42.1895C41.9365 23.8348 41.8901 23.8628 41.8901 24.1727C41.8901 25.0499 42.102 25.3966 42.6798 25.4929L42.9713 25.4946C42.9713 25.4946 44.6398 31.3397 45.5222 33.7909C45.5222 33.7909 45.3918 34.2636 45.3918 34.268C45.109 35.1784 44.6214 35.6047 43.8546 35.6047C43.6725 35.6047 42.6439 35.448 42.6439 35.448C42.0626 35.3999 41.9085 35.6441 41.8376 35.8595C41.7369 36.1589 41.6652 36.4889 41.6652 36.5528" fill="white"/>
<path d="M34.5498 20.572H32.0602C31.8413 20.572 31.8352 20.5904 31.7984 20.811L30.3978 29.5143L28.703 20.853C28.6644 20.621 28.6268 20.572 28.3589 20.572H27.22C26.7998 20.572 26.7841 20.6341 26.7315 20.8679L24.9641 29.5143L23.6378 20.811C23.6081 20.5904 23.5976 20.572 23.3813 20.572H20.826C20.559 20.572 20.5161 20.5965 20.5161 20.9204C20.5161 21.8781 20.7455 22.2291 21.4274 22.3053L21.6839 22.3167L23.6326 33.0247C23.6947 33.2716 23.7271 33.3232 23.9591 33.3232H25.646C25.9148 33.3232 25.9235 33.3075 25.9708 33.0247L27.6481 24.7004L29.068 33.0282C29.1153 33.3075 29.1205 33.3232 29.3945 33.3232H31.1165C31.3441 33.3232 31.3791 33.2716 31.4413 33.0247L33.6482 22.3106L33.895 22.3053C34.577 22.2291 34.8011 21.8746 34.8011 20.9204C34.8011 20.6175 34.7599 20.5851 34.5498 20.572Z" fill="white"/>
<path d="M38.8218 31.1968C38.5881 31.4532 38.097 31.9767 37.4159 31.9767C36.7112 31.9767 36.1755 31.3762 36.1755 30.5866C36.1755 28.8358 38.2537 28.9356 38.8218 28.975V31.1968ZM41.0384 31.6441C40.9395 31.2755 40.8414 30.8072 40.8414 29.9458V26.5755C40.8414 24.4543 39.9205 23.5098 37.8265 23.5098C36.3707 23.5098 34.8291 24.1401 34.8291 24.5357C34.8291 24.5883 34.893 24.8929 34.9875 25.173C35.0296 25.3017 35.1276 25.5924 35.7474 25.5442C36.0004 25.525 37.0702 25.3201 37.5201 25.3201C38.7054 25.3201 38.8218 26.0108 38.8218 26.8276V27.4973C37.3415 27.4973 34.155 27.5113 34.155 30.7214C34.155 32.53 35.1574 33.6497 36.7743 33.6497C38.0007 33.6497 38.6109 32.9782 38.9777 32.5729L39.1169 32.4162L39.1633 32.6596C39.2377 33.0509 39.3112 33.3231 39.6167 33.3231H41.7624C42.0337 33.3231 42.0653 33.303 42.0653 32.9878C42.0653 32.031 41.8324 31.6914 41.0384 31.6441Z" fill="white"/>
<path d="M25.9427 15.8608L25.7169 15.8582V8.26663C25.7169 8.08105 25.7055 8.06004 25.5313 8.06004H22.5278C22.2686 8.06004 22.2328 8.08105 22.2328 8.39007C22.2328 9.42568 22.5076 9.74083 23.3953 9.74083H23.6124V15.8582L23.3839 15.8608C22.4954 15.8608 22.224 16.1804 22.224 17.2133C22.224 17.5215 22.2651 17.5469 22.5225 17.5469H26.8129C27.0624 17.5469 27.1105 17.5215 27.1105 17.2133C27.1105 16.1926 26.8199 15.8608 25.9427 15.8608Z" fill="white"/>
<path d="M24.6472 4.4591C23.9311 4.4591 23.3708 5.05701 23.3708 5.82037C23.3708 6.5741 23.9416 7.19214 24.6472 7.19214C25.3414 7.19214 25.9034 6.5741 25.9034 5.82037C25.9034 5.06926 25.3414 4.4591 24.6472 4.4591Z" fill="white"/>
<path d="M10.4375 6.86248H10.4962C11.4022 6.86248 11.6937 6.52369 11.6937 5.46795C11.6937 5.15192 11.6534 5.12566 11.3864 5.12566H7.25625C7.01901 5.12566 6.98312 5.16331 6.96211 5.306L6.95073 5.46795C6.95073 6.51932 7.23874 6.85635 8.13166 6.86248H8.19207V13.0937C8.19207 14.2825 8.19207 15.9072 6.27842 15.9072C4.50833 15.9072 4.36652 14.6309 4.36652 13.0937V6.86248H4.42517C5.31634 6.85635 5.60435 6.51932 5.60435 5.46795C5.60435 5.46795 5.59209 5.27273 5.59209 5.27011C5.56933 5.15893 5.52731 5.12566 5.29883 5.12566H1.17214C0.907764 5.12566 0.864868 5.15192 0.864868 5.46795C0.864868 6.53595 1.14062 6.86248 2.06593 6.86248H2.12021V13.0937C2.12021 16.4456 3.36592 17.8787 6.27842 17.8787C9.19004 17.8787 10.4375 16.4456 10.4375 13.0937V6.86248Z" fill="white"/>
<path d="M20.018 15.8608V10.7388C20.018 8.65969 19.3326 7.72388 17.8032 7.72388C16.4385 7.72388 15.6812 8.524 15.0929 9.12716C15.0501 8.91094 15.0019 8.7341 15.0019 8.7341C14.9074 8.31653 14.8338 8.06004 14.5642 8.06004H12.2417C11.9835 8.06004 11.9493 8.08105 11.9493 8.39007C11.9493 9.37053 12.191 9.72069 13.0191 9.73733C13.1355 10.1479 13.2082 10.4849 13.2082 11.4619V15.8608C12.3354 15.8661 12.0649 16.1865 12.0649 17.2133C12.0649 17.5215 12.1087 17.5469 12.366 17.5469H15.1271C15.2969 17.5469 15.3057 17.5206 15.3057 17.3394L15.3074 10.4692C15.5587 10.2092 16.1329 9.6384 16.8727 9.6384C17.9188 9.6384 17.9188 10.8316 17.9188 11.3428V17.3394C17.9188 17.5206 17.9232 17.5469 18.0982 17.5469H20.8549C21.1044 17.5469 21.1499 17.5215 21.1499 17.2133C21.1499 16.204 20.868 15.8696 20.018 15.8608Z" fill="white"/>
<path d="M31.1112 17.8787C32.3386 17.8787 33.3313 17.5565 33.3313 17.2965C33.3313 17.2501 33.2604 16.8894 33.2148 16.71C33.0459 15.9974 32.982 15.7322 31.6794 15.895C31.5113 15.916 31.3712 15.8775 31.2679 15.7759C31.0123 15.5229 31.0123 14.9618 31.0123 14.5136V9.74083H32.1792C33.0748 9.74083 33.3462 9.42568 33.3462 8.39007C33.3462 8.08105 33.3068 8.06092 33.0468 8.06092H31.0123V5.39091C31.0123 5.13792 30.9904 5.12654 30.8941 5.12479C30.8031 5.12479 30.3741 5.18081 30.157 5.21145C29.5565 5.313 28.9113 5.77697 28.9113 6.85022V8.06092H27.7111C27.4529 8.06092 27.417 8.08105 27.417 8.39007C27.417 9.42568 27.6875 9.74083 28.576 9.74083H28.9113V14.1835C28.9113 15.9992 28.9113 17.8787 31.1112 17.8787" fill="white"/>
<path d="M36.2726 11.7213L36.2875 11.5532C36.3453 10.9115 36.4792 9.40404 37.8239 9.40404C39.1352 9.40404 39.1431 10.9404 39.1431 11.7213H36.2726ZM41.3089 12.974C41.3089 9.49596 40.1507 7.725 37.8703 7.725C35.6135 7.725 34.099 9.80586 34.099 12.8996C34.099 17.0105 36.1991 17.8789 37.9587 17.8789C39.3804 17.8789 41.0323 17.2162 41.0323 16.7943C41.0323 16.726 40.9587 16.41 40.8642 16.1211C40.7968 15.911 40.6768 15.6956 40.0772 15.7263C39.6176 15.7499 38.8717 15.9653 38.188 15.9653C36.8758 15.9653 36.2052 15.1432 36.2009 13.3942H40.9701C41.2494 13.3942 41.3089 13.325 41.3089 12.974Z" fill="white"/>
<path d="M45.9862 16.0633C44.7081 16.0633 44.4534 14.8929 44.4534 12.8593C44.4534 10.7058 44.7195 9.54323 46.093 9.54323C46.6401 9.54323 47.0411 9.66142 47.4928 9.95468V15.3437C47.2214 15.6589 46.8345 16.0633 45.9862 16.0633ZM49.789 15.8611C49.6734 15.4908 49.6008 15.1021 49.6008 14.1654V4.71096C49.6008 4.528 49.5859 4.50349 49.4135 4.50349H46.6436C46.3854 4.50349 46.3408 4.528 46.3408 4.83527C46.3408 5.83587 46.6078 6.16502 47.4385 6.1834L47.4928 6.18428V8.36405L47.3221 8.24762C47.0061 8.02877 46.578 7.72501 45.6518 7.72501C43.4939 7.72501 42.3489 9.6194 42.3489 13.192C42.3489 16.213 43.3915 17.8789 45.2885 17.8789C46.7872 17.8789 47.7791 16.7803 47.7791 16.7803L47.8981 17.19C47.9883 17.5104 47.9988 17.5471 48.2605 17.5471H50.6933C50.948 17.5471 50.9927 17.5217 50.9927 17.2136C50.9927 16.1955 50.7239 15.8611 49.789 15.8611Z" fill="white"/>
<path d="M88.3282 35.7194H88.2003V36.1623H88.3212C88.442 36.1623 88.5024 36.1457 88.5461 36.1019C88.5864 36.0617 88.61 36.0048 88.61 35.9339C88.61 35.7929 88.533 35.7194 88.3282 35.7194ZM88.6503 36.9275L88.5295 36.7095C88.4358 36.5379 88.3684 36.4442 88.2914 36.3672C88.2642 36.3401 88.2441 36.3269 88.2003 36.3234V36.9275H87.9727V35.5312H88.3991C88.7107 35.5312 88.8517 35.7124 88.8517 35.9304C88.8517 36.1457 88.7142 36.3129 88.5059 36.3129C88.5566 36.3401 88.6468 36.474 88.7212 36.5922L88.9252 36.9275H88.6503ZM88.3719 35.1889C87.8178 35.1889 87.3783 35.6458 87.3783 36.2324C87.3783 36.8163 87.8178 37.2794 88.3719 37.2794C88.9217 37.2794 89.3681 36.8163 89.3681 36.2324C89.3681 35.6458 88.9217 35.1889 88.3719 35.1889ZM88.3719 37.4807C87.6944 37.4807 87.1367 36.9336 87.1367 36.2324C87.1367 35.5312 87.6944 34.9849 88.3719 34.9849C89.046 34.9849 89.6098 35.5312 89.6098 36.2324C89.6098 36.9336 89.046 37.4807 88.3719 37.4807Z" fill="white"/>
</svg>
