<svg width="39" height="59" viewBox="0 0 39 59" fill="none" xmlns="http://www.w3.org/2000/svg">
<g clip-path="url(#clip0_112_325)">
<path d="M19.4856 29.3752C19.4856 24.1136 23.7232 19.8481 28.9507 19.8481C34.1781 19.8481 38.4159 24.1136 38.4159 29.3752C38.4159 34.6368 34.1781 38.9022 28.9507 38.9022C23.7232 38.9022 19.4856 34.6368 19.4856 29.3752Z" fill="#1ABCFE"/>
<path d="M0.55542 48.4289C0.55542 43.1673 4.79311 38.9019 10.0206 38.9019H19.4857V48.4289C19.4857 53.6905 15.2481 57.9559 10.0206 57.9559C4.79311 57.9559 0.55542 53.6905 0.55542 48.4289Z" fill="#0ACF83"/>
<path d="M19.4856 0.793945V19.8479H28.9507C34.1782 19.8479 38.4159 15.5826 38.4159 10.3209C38.4159 5.05934 34.1782 0.793945 28.9507 0.793945H19.4856Z" fill="#FF7262"/>
<path d="M0.55542 10.321C0.55542 15.5826 4.79311 19.8479 10.0206 19.8479H19.4857V0.793945H10.0206C4.79311 0.793945 0.55542 5.05933 0.55542 10.321Z" fill="#F24E1E"/>
<path d="M0.55542 29.3752C0.55542 34.6368 4.79311 38.9022 10.0206 38.9022H19.4857V19.8481H10.0206C4.79311 19.8481 0.55542 24.1136 0.55542 29.3752Z" fill="#A259FF"/>
</g>
<defs>
<clipPath id="clip0_112_325">
<rect width="38.25" height="57.75" fill="white" transform="translate(0.360596 0.5)"/>
</clipPath>
</defs>
</svg>
