<svg width="59" height="61" viewBox="0 0 59 61" fill="none" xmlns="http://www.w3.org/2000/svg">
<g clip-path="url(#clip0_149_321)">
<path fill-rule="evenodd" clip-rule="evenodd" d="M58.2079 13.7179C58.2292 13.7966 58.24 13.8776 58.2402 13.9591V26.6191C58.2402 26.7816 58.1973 26.9412 58.1159 27.0818C58.0345 27.2224 57.9173 27.339 57.7764 27.4199L47.1506 33.5375V45.6633C47.1506 45.9933 46.9752 46.2979 46.6891 46.4641L24.5087 59.2325C24.4579 59.2614 24.4025 59.2799 24.3471 59.2995C24.3264 59.3064 24.3068 59.3191 24.2848 59.3249C24.1298 59.3657 23.9668 59.3657 23.8118 59.3249C23.7864 59.3179 23.7633 59.3041 23.7391 59.2949C23.6883 59.2764 23.6352 59.2602 23.5868 59.2325L1.41099 46.4641C1.27011 46.3832 1.15306 46.2665 1.07163 46.1259C0.990192 45.9854 0.947255 45.8258 0.947144 45.6633L0.947144 7.68331C0.947144 7.60024 0.958682 7.51947 0.979451 7.44101C0.986374 7.41447 1.00253 7.39024 1.01176 7.3637C1.02907 7.31524 1.04522 7.26562 1.07061 7.22062C1.08791 7.19062 1.1133 7.16639 1.13407 7.1387C1.16061 7.10178 1.18484 7.0637 1.21599 7.03139C1.24253 7.00485 1.27714 6.98524 1.30714 6.96216C1.34061 6.93447 1.37061 6.90447 1.40868 6.88254H1.40984L12.4983 0.498313C12.6387 0.417521 12.7978 0.375 12.9598 0.375C13.1218 0.375 13.281 0.417521 13.4214 0.498313L24.5098 6.88254H24.5121C24.5491 6.90562 24.5802 6.93447 24.6137 6.96101C24.6437 6.98408 24.6771 7.00485 24.7037 7.03024C24.736 7.0637 24.7591 7.10178 24.7868 7.1387C24.8064 7.16639 24.8329 7.19062 24.8491 7.22062C24.8756 7.26678 24.8906 7.31524 24.9091 7.3637C24.9183 7.39024 24.9345 7.41447 24.9414 7.44216C24.9626 7.52079 24.9735 7.60186 24.9737 7.68331V31.4052L34.2137 26.0849V13.9579C34.2137 13.8772 34.2252 13.7952 34.246 13.7179C34.2541 13.6902 34.2691 13.666 34.2783 13.6395C34.2968 13.591 34.3129 13.5414 34.3383 13.4964C34.3556 13.4664 34.381 13.4422 34.4006 13.4145C34.4283 13.3775 34.4514 13.3395 34.4837 13.3072C34.5102 13.2806 34.5437 13.261 34.5737 13.2379C34.6083 13.2102 34.6383 13.1802 34.6752 13.1583H34.6764L45.766 6.77408C45.9064 6.69318 46.0655 6.65059 46.2275 6.65059C46.3895 6.65059 46.5487 6.69318 46.6891 6.77408L57.7775 13.1583C57.8168 13.1814 57.8468 13.2102 57.8814 13.2368C57.9102 13.2599 57.9437 13.2806 57.9702 13.306C58.0025 13.3395 58.0256 13.3775 58.0533 13.4145C58.0741 13.4422 58.0995 13.4664 58.1156 13.4964C58.1422 13.5414 58.1572 13.591 58.1756 13.6395C58.186 13.666 58.201 13.6902 58.2079 13.7179ZM56.3918 26.0849V15.5572L52.5114 17.791L47.1506 20.8775V31.4052L56.3929 26.0849H56.3918ZM45.3033 45.1291V34.5945L40.0302 37.606L24.9725 46.1999V56.8337L45.3033 45.1291ZM2.79561 9.28139V45.1291L23.1241 56.8326V46.201L12.5041 40.1906L12.5006 40.1883L12.496 40.186C12.4602 40.1652 12.4302 40.1352 12.3968 40.1099C12.3679 40.0868 12.3345 40.0683 12.3091 40.0429L12.3068 40.0395C12.2768 40.0106 12.256 39.9749 12.2306 39.9425C12.2075 39.9114 12.1798 39.8849 12.1614 39.8525L12.1602 39.8491C12.1395 39.8145 12.1268 39.7729 12.1118 39.7337C12.0968 39.6991 12.0771 39.6668 12.0679 39.6299V39.6287C12.0564 39.5849 12.0541 39.5387 12.0495 39.4937C12.0448 39.4591 12.0356 39.4245 12.0356 39.3899V39.3875V14.6018L6.67599 11.5141L2.79561 9.28254V9.28139ZM12.961 2.36524L3.72214 7.68331L12.9587 13.0014L22.1964 7.68216L12.9587 2.36524H12.961ZM17.7656 35.5545L23.1252 32.4691V9.28139L19.2448 11.5152L13.8841 14.6018V37.7895L17.7656 35.5545ZM46.2275 8.64101L36.9898 13.9591L46.2275 19.2772L55.4641 13.9579L46.2275 8.64101ZM45.3033 20.8775L39.9425 17.791L36.0621 15.5572V26.0849L41.4218 29.1702L45.3033 31.4052V20.8775ZM24.0471 44.6018L37.5968 36.8664L44.3698 33.001L35.1391 27.6864L24.511 33.8052L14.8245 39.3818L24.0471 44.6018Z" fill="#FF2D20"/>
</g>
<defs>
<clipPath id="clip0_149_321">
<rect width="57.6923" height="60" fill="white" transform="translate(0.947144 0.375)"/>
</clipPath>
</defs>
</svg>
