<svg width="55" height="61" viewBox="0 0 55 61" fill="none" xmlns="http://www.w3.org/2000/svg">
<g clip-path="url(#clip0_112_339)">
<path fill-rule="evenodd" clip-rule="evenodd" d="M38.3594 59.6774L38.2235 7.62336C37.8716 7.27274 37.1853 7.37862 36.917 7.45673L35.1298 8.00868C34.9092 7.28534 34.6229 6.58353 34.2745 5.91194C33.0064 3.4993 31.153 2.22355 28.9094 2.22008H28.9024C28.7526 2.22008 28.6045 2.23396 28.4547 2.24611L28.4373 2.24785C28.3724 2.16822 28.305 2.09065 28.2352 2.01526C27.2598 0.973835 26.0056 0.46527 24.504 0.508663C21.6089 0.591978 18.726 2.67831 16.3866 6.38406C14.7405 8.99284 13.4915 12.2681 13.1344 14.804L7.43304 16.5658C5.75556 17.0917 5.7033 17.1438 5.48207 18.7215C5.31659 19.9157 0.925171 53.7951 0.925171 53.7951L37.7288 60.1443L38.3594 59.6757V59.6774ZM26.3017 2.88833C25.8122 2.56722 25.2391 2.41795 24.5598 2.43183C20.0899 2.56028 16.1915 9.5257 15.1968 14.167L19.4785 12.8444L20.2432 12.6083C20.8041 9.66108 22.2116 6.60276 24.0528 4.63446C24.6966 3.92916 25.4566 3.33862 26.2999 2.88833H26.3017ZM22.3597 11.954L28.5052 10.0551C28.5244 8.45823 28.3502 6.09766 27.5489 4.43138C26.6954 4.78199 25.9777 5.39643 25.4621 5.94666C24.0807 7.42722 22.9537 9.68538 22.3614 11.954H22.3597ZM30.4301 9.46148L33.2868 8.578C32.8305 7.09917 31.747 4.62057 29.5504 4.204C30.2332 5.96228 30.4092 7.99827 30.4301 9.46148Z" fill="#95BF47"/>
<path d="M46.6055 11.4956C46.3861 11.4783 42.1323 11.4123 42.1323 11.4123C42.1323 11.4123 38.5735 7.9652 38.2216 7.61285C38.0854 7.48757 37.9128 7.40856 37.7286 7.38721V60.1356L53.6761 56.1799C53.6761 56.1799 47.1682 12.2819 47.1264 11.9816C47.1063 11.8541 47.0439 11.737 46.9491 11.6489C46.8544 11.5608 46.7329 11.5069 46.6038 11.4956H46.6055Z" fill="#5E8E3E"/>
<path d="M28.8898 19.6865L27.0364 26.6016C27.0364 26.6016 24.9704 25.6626 22.5195 25.8171C18.9277 26.0427 18.8893 28.3043 18.9259 28.8719C19.121 31.9615 27.275 32.6384 27.7331 39.8816C28.0937 45.5799 24.7039 49.4801 19.8195 49.7855C13.9579 50.1553 10.7301 46.7047 10.7301 46.7047L11.9721 41.4316C11.9721 41.4316 15.2208 43.8772 17.8198 43.7123C19.5199 43.6064 20.1261 42.2282 20.0651 41.2528C19.8091 37.2207 13.1688 37.4568 12.749 30.8298C12.3971 25.2495 16.0674 19.5997 24.1691 19.0894C27.2907 18.8916 28.8898 19.6883 28.8898 19.6883" fill="white"/>
</g>
<defs>
<clipPath id="clip0_112_339">
<rect width="54" height="60.75" fill="white" transform="translate(0.360474)"/>
</clipPath>
</defs>
</svg>
