<svg width="89" height="60" viewBox="0 0 89 60" fill="none" xmlns="http://www.w3.org/2000/svg">
<path fill-rule="evenodd" clip-rule="evenodd" d="M79.841 7.6875H8.71952C4.2186 7.6875 0.575013 11.3749 0.610734 15.8499V43.0581C0.610734 47.5688 4.25433 51.2205 8.75525 51.2205H42.4405L57.8367 59.8125L54.3359 51.2205H79.841C84.342 51.2205 87.9855 47.5688 87.9855 43.0581V15.8499C87.9855 11.3391 84.342 7.6875 79.841 7.6875ZM7.21938 13.9883C6.21916 14.0599 5.469 14.4179 4.96891 15.0981C4.46881 15.7425 4.29021 16.5659 4.39736 17.4967C6.50494 30.9219 8.46961 39.9793 10.2914 44.6691C11.0059 46.3874 11.8274 47.211 12.7919 47.1394C14.2922 47.0319 16.0783 44.9555 18.1859 40.9101C19.2932 38.6187 21.0079 35.1821 23.3298 30.5996C25.2586 37.3658 27.902 42.4496 31.2243 45.8505C32.1531 46.8171 33.1175 47.2467 34.0461 47.1751C34.8679 47.1035 35.5107 46.6738 35.9394 45.8862C36.2966 45.206 36.4395 44.4184 36.3681 43.5234C36.1537 40.2657 36.4754 35.719 37.3684 29.8836C38.297 23.8692 39.4402 19.5373 40.8333 16.9597C41.1191 16.4227 41.2261 15.8857 41.1905 15.2413C41.1191 14.4179 40.7618 13.7377 40.0832 13.2007C39.4045 12.6637 38.6542 12.4131 37.8327 12.4847C36.7968 12.5563 36.0108 13.0575 35.4751 14.0599C33.2604 18.1053 31.6886 24.6568 30.7599 33.75C29.4024 30.3132 28.2593 26.2678 27.3663 21.5063C26.9734 19.3942 26.009 18.3917 24.4371 18.4991C23.3655 18.5707 22.4725 19.2867 21.758 20.6471L13.935 35.5758C12.649 30.3848 11.4345 24.0482 10.3271 16.5659C10.0771 14.7043 9.04116 13.8451 7.21938 13.9883ZM76.0547 16.566C78.591 17.1031 80.4843 18.4635 81.7701 20.7189C82.9133 22.6521 83.4847 24.9791 83.4847 27.7715C83.4847 31.4588 82.5561 34.8241 80.6984 37.9029C78.5552 41.483 75.7689 43.2729 72.304 43.2729C71.6968 43.2729 71.0538 43.2013 70.3749 43.0581C67.8388 42.5212 65.9455 41.1609 64.6594 38.9054C63.5165 36.9363 62.9449 34.5736 62.9449 31.8169C62.9449 28.1295 63.8737 24.7643 65.7312 21.7213C67.9102 18.1413 70.6965 16.3512 74.1258 16.3512C74.733 16.3512 75.3761 16.4229 76.0547 16.566ZM74.5545 35.9339C75.8762 34.7525 76.7692 32.9983 77.2693 30.6355C77.4122 29.8121 77.5193 28.9171 77.5193 27.9863C77.5193 26.9481 77.3049 25.8383 76.8763 24.7285C76.3405 23.3323 75.626 22.5805 74.7686 22.4015C73.4828 22.1509 72.2325 22.8669 71.0538 24.6211C70.0893 25.9815 69.4819 27.4135 69.1605 28.8813C68.9817 29.7047 68.9103 30.5998 68.9103 31.4948C68.9103 32.5329 69.1246 33.6427 69.5533 34.7525C70.0893 36.1487 70.8036 36.9004 71.661 37.0796C72.554 37.2585 73.5184 36.8647 74.5545 35.9339ZM59.3727 20.7189C58.0866 18.4635 56.1578 17.1031 53.6573 16.566C52.9784 16.4229 52.3356 16.3512 51.7282 16.3512C48.2991 16.3512 45.5128 18.1413 43.3338 21.7213C41.4761 24.7643 40.5475 28.1295 40.5475 31.8169C40.5475 34.5736 41.1191 36.9363 42.262 38.9054C43.5481 41.1609 45.4414 42.5212 47.9775 43.0581C48.6561 43.2013 49.2991 43.2729 49.9066 43.2729C53.3715 43.2729 56.1578 41.483 58.301 37.9029C60.1586 34.8241 61.0872 31.4588 61.0872 27.7715C61.0872 24.9791 60.5157 22.6521 59.3727 20.7189ZM54.8717 30.6355C54.3718 32.9983 53.4785 34.7525 52.1569 35.9339C51.121 36.8647 50.1565 37.2585 49.2635 37.0796C48.4062 36.9004 47.6917 36.1487 47.1559 34.7525C46.7272 33.6427 46.5129 32.5329 46.5129 31.4948C46.5129 30.5998 46.5843 29.7047 46.7631 28.8813C47.0845 27.4135 47.6917 25.9815 48.6561 24.6211C49.8351 22.8669 51.0854 22.1509 52.3712 22.4015C53.2286 22.5805 53.9431 23.3323 54.4788 24.7285C54.9075 25.8383 55.1219 26.9481 55.1219 27.9863C55.1219 28.9171 55.0504 29.8121 54.8717 30.6355Z" fill="#8B64BA"/>
</svg>
