<svg width="58" height="58" viewBox="0 0 58 58" fill="none" xmlns="http://www.w3.org/2000/svg">
<path d="M29.1106 0.875034C13.3705 0.875034 0.610657 13.6349 0.610657 29.375C0.610657 45.1151 13.3705 57.875 29.1106 57.875C44.8507 57.875 57.6105 45.1151 57.6105 29.375C57.6105 13.6349 44.8507 0.875034 29.1106 0.875034ZM29.1106 2.58503C32.728 2.58503 36.2362 3.29314 39.5379 4.68961C41.125 5.36087 42.6558 6.19185 44.088 7.15928C45.5069 8.1179 46.8412 9.21889 48.054 10.4316C49.2667 11.6443 50.3677 12.9787 51.3263 14.3976C52.2938 15.8297 53.1247 17.3606 53.796 18.9477C55.1925 22.2493 55.9005 25.7576 55.9005 29.375C55.9005 32.9924 55.1925 36.5006 53.796 39.8023C53.1247 41.3893 52.2938 42.9202 51.3263 44.3523C50.3677 45.7713 49.2667 47.1056 48.054 48.3183C46.8412 49.5311 45.5069 50.632 44.088 51.5907C42.6558 52.5582 41.125 53.3891 39.5379 54.0603C36.2362 55.4569 32.728 56.165 29.1106 56.165C25.4933 56.165 21.9849 55.4569 18.6833 54.0603C17.0962 53.3891 15.5654 52.5582 14.1332 51.5907C12.7144 50.632 11.38 49.5311 10.1672 48.3183C8.95451 47.1056 7.85352 45.7713 6.8949 44.3523C5.92747 42.9202 5.0965 41.3893 4.42524 39.8023C3.02877 36.5006 2.32065 32.9924 2.32065 29.375C2.32065 25.7576 3.02877 22.2493 4.42524 18.9477C5.0965 17.3606 5.92747 15.8297 6.8949 14.3976C7.85352 12.9787 8.95451 11.6443 10.1672 10.4316C11.38 9.21889 12.7144 8.1179 14.1332 7.15928C15.5654 6.19185 17.0962 5.36087 18.6833 4.68961C21.9849 3.29314 25.4933 2.58503 29.1106 2.58503Z" fill="black"/>
<path d="M49.9517 17.9807C50.0537 18.737 50.1113 19.5485 50.1113 20.4227C50.1113 22.8318 49.66 25.541 48.3048 28.929L41.0511 49.9019C48.1119 45.7854 52.8603 38.1358 52.8603 29.3741C52.8603 25.245 51.8051 21.3632 49.9517 17.9807ZM29.5276 31.4515L22.4007 52.1573C24.5291 52.7835 26.7793 53.125 29.1103 53.125C31.876 53.125 34.5292 52.6477 36.9976 51.7785C36.9341 51.6769 36.8755 51.569 36.8272 51.4512L29.5276 31.4515ZM45.1435 28.1764C45.1435 25.2403 44.0889 23.2082 43.1857 21.6267C41.9817 19.6694 40.8526 18.0135 40.8526 16.0563C40.8526 13.8735 42.508 11.8414 44.841 11.8414C44.9464 11.8414 45.0462 11.854 45.1485 11.8605C40.923 7.98891 35.2934 5.6251 29.1103 5.6251C20.8127 5.6251 13.5134 9.88257 9.26658 16.3294C9.82421 16.3471 10.3496 16.3582 10.7951 16.3582C13.2787 16.3582 17.1251 16.0563 17.1251 16.0563C18.4046 15.9814 18.5559 17.8623 17.2769 18.0135C17.2769 18.0135 15.9899 18.1643 14.5589 18.2392L23.2073 43.9647L28.4054 28.3772L24.7054 18.2392C23.4258 18.1643 22.2144 18.0135 22.2144 18.0135C20.9342 17.9379 21.0841 15.9814 22.3651 16.0563C22.3651 16.0563 26.2864 16.3582 28.6199 16.3582C31.1035 16.3582 34.9505 16.0563 34.9505 16.0563C36.2308 15.9814 36.3814 17.8623 35.1018 18.0135C35.1018 18.0135 33.8135 18.1643 32.3838 18.2392L40.9668 43.7687L43.4169 36.0053C44.5054 32.6124 45.1435 30.2085 45.1435 28.1764ZM5.36035 29.3741C5.36035 38.7744 10.8229 46.8989 18.7462 50.7482L7.41688 19.7088C6.09907 22.6622 5.36035 25.9309 5.36035 29.3741Z" fill="black"/>
</svg>
