<svg width="40" height="36" viewBox="0 0 40 36" fill="none" xmlns="http://www.w3.org/2000/svg">
<g id="custom-websites.svg">
<path id="Vector" d="M20.0005 32.0611H4.68512C3.96832 32.0611 3.28088 31.7763 2.77402 31.2694C2.26717 30.7626 1.98242 30.0751 1.98242 29.3584V5.93488C1.98242 5.21808 2.26717 4.53064 2.77402 4.02378C3.28088 3.51692 3.96832 3.23218 4.68512 3.23218H35.3157C36.0326 3.23218 36.72 3.51692 37.2268 4.02378C37.7338 4.53064 38.0184 5.21808 38.0184 5.93488V16.7988" stroke="white" stroke-width="3.02703" stroke-linecap="round" stroke-linejoin="round"/>
<path id="Vector_2" d="M1.98242 5.93488C1.98242 5.21808 2.26717 4.53063 2.77402 4.02378C3.28088 3.51692 3.96832 3.23218 4.68512 3.23218H35.3157C36.0326 3.23218 36.72 3.51692 37.2268 4.02378C37.7338 4.53063 38.0184 5.21808 38.0184 5.93488V14.043H1.98242V5.93488Z" stroke="white" stroke-width="3.02703"/>
<path id="Vector_3" d="M5.58545 8.63778C5.58545 7.64263 6.39214 6.83594 7.38724 6.83594C8.38236 6.83594 9.18905 7.64263 9.18905 8.63778C9.18905 9.6328 8.38236 10.4395 7.38724 10.4395C6.39214 10.4395 5.58545 9.6328 5.58545 8.63778Z" fill="white"/>
<path id="Vector_4" d="M10.9912 8.63778C10.9912 7.64263 11.7979 6.83594 12.7929 6.83594C13.7881 6.83594 14.5948 7.64263 14.5948 8.63778C14.5948 9.6328 13.7881 10.4395 12.7929 10.4395C11.7979 10.4395 10.9912 9.6328 10.9912 8.63778Z" fill="white"/>
<path id="Vector_5" d="M31.712 29.3585C33.2046 29.3585 34.4147 28.1485 34.4147 26.6558C34.4147 25.1632 33.2046 23.9531 31.712 23.9531C30.2193 23.9531 29.0093 25.1632 29.0093 26.6558C29.0093 28.1485 30.2193 29.3585 31.712 29.3585Z" stroke="white" stroke-width="3.02703"/>
<path id="Vector_6" d="M31.7122 32.962V29.3584M31.7122 23.953V20.3494M26.251 29.8088L29.3716 28.0071M34.0527 25.3044L37.1735 23.5026M26.251 23.5026L29.3716 25.3044M34.0527 28.0071L37.1735 29.8088" stroke="white" stroke-width="3.02703" stroke-linecap="round" stroke-linejoin="round"/>
</g>
</svg>
