<svg width="64" height="65" viewBox="0 0 64 65" fill="none" xmlns="http://www.w3.org/2000/svg">
<g id="fast-icon.svg" clip-path="url(#clip0_1_1056)">
<path id="Vector" opacity="0.1" d="M32 64.64C49.6731 64.64 64 50.3131 64 32.64C64 14.9669 49.6731 0.640015 32 0.640015C14.3269 0.640015 0 14.9669 0 32.64C0 50.3131 14.3269 64.64 32 64.64Z" fill="#A27FFF"/>
<path id="Vector_2" d="M25.7503 28.8635C25.6589 28.6841 25.4801 28.5664 25.2795 28.5533L20.4725 28.2327C20.2234 28.2082 19.9931 28.3625 19.9023 28.5944L16.4368 37.4508C16.3437 37.6885 16.4197 37.9588 16.6231 38.1136C16.7249 38.1913 16.8471 38.2302 16.9688 38.2302C17.0893 38.2302 17.2099 38.1925 17.3117 38.116L20.188 35.959L21.8627 36.2938C22.1359 36.3481 22.409 36.1984 22.5084 35.9373C23.4078 33.5815 24.4905 31.3909 25.7252 29.427C25.8321 29.2566 25.8418 29.0423 25.7503 28.8635ZM21.6158 35.079L20.1611 34.7882C20.0023 34.7568 19.8366 34.7945 19.7063 34.8916L18.2327 35.9966L20.8136 29.4006L24.2636 29.6303C23.2694 31.313 22.3815 33.1403 21.6158 35.079Z" fill="#A27FFF"/>
<path id="Vector_3" d="M36.4087 44.1679L36.0881 39.3603C36.0744 39.1591 35.9567 38.9803 35.7773 38.8889C35.5984 38.7975 35.3841 38.8066 35.2139 38.914C33.2495 40.1487 31.0594 41.2315 28.7036 42.1308C28.4431 42.2296 28.2922 42.5028 28.3471 42.7765L28.6819 44.4512L26.525 47.3269C26.3719 47.5315 26.3725 47.8126 26.5273 48.0161C26.6376 48.1612 26.8072 48.2417 26.9821 48.2417C27.0518 48.2417 27.1221 48.2286 27.1906 48.2034L36.047 44.738C36.279 44.6473 36.4252 44.4164 36.4087 44.1679ZM28.6442 46.406L29.7492 44.9324C29.8464 44.8027 29.8841 44.637 29.8521 44.4776L29.5612 43.0234C31.5005 42.2578 33.3272 41.3698 35.0099 40.3756L35.2402 43.825L28.6442 46.406Z" fill="#A27FFF"/>
<path id="Vector_4" d="M31.4275 32.6403H27.5775C27.3701 32.6403 27.1793 32.7529 27.0781 32.934L22.2459 41.6167C22.1202 41.843 22.1625 42.1264 22.3488 42.3059C22.4579 42.411 22.6013 42.4658 22.7453 42.4658C22.8471 42.4658 22.9493 42.439 23.0407 42.383L31.7234 37.1286C31.8942 37.0252 31.9988 36.8401 31.9988 36.6401V33.2117C31.9989 32.8963 31.7429 32.6403 31.4275 32.6403ZM30.8562 36.3184L24.2916 40.2911L27.913 33.7837L30.8562 33.7831V36.3184Z" fill="#A27FFF"/>
<path id="Vector_5" d="M49.1143 16.0479C49.0909 15.7697 48.8703 15.5491 48.592 15.5257C48.4023 15.5108 29.5862 14.1972 21.4418 35.5292C21.3612 35.74 21.412 35.9777 21.5715 36.1371L24.2884 38.854C24.4158 38.9814 24.5941 39.0397 24.7729 39.0157C24.9506 38.99 25.1061 38.8826 25.1929 38.7255L27.915 33.783H30.8565V36.3251L25.8843 39.4643C25.7375 39.5574 25.6409 39.7117 25.6215 39.8842C25.6021 40.0568 25.6626 40.2288 25.7855 40.3516L28.5024 43.0685C28.6115 43.1777 28.7572 43.236 28.9064 43.236C28.9749 43.236 29.044 43.224 29.1103 43.1983C50.4433 35.0532 49.1303 16.2371 49.1143 16.0479ZM46.1168 26.1854C44.1118 31.1461 39.5236 37.8902 29.0474 41.9978L27.099 40.0494L31.7329 37.1239C31.8985 37.0188 31.9991 36.8365 31.9991 36.6405V33.2122C31.9991 32.8968 31.7431 32.6408 31.4277 32.6408H27.5766C27.3681 32.6408 27.1766 32.7545 27.0761 32.9368L24.558 37.5089L22.6422 35.5925C29.7919 17.353 45.0317 16.6067 47.9943 16.6484C48.0155 17.9809 47.8932 21.7897 46.1168 26.1854Z" fill="#A27FFF"/>
<path id="Vector_6" d="M24.6449 40.7339C24.5209 40.5694 24.3232 40.4894 24.1295 40.5099C24.1495 40.3157 24.0695 40.1185 23.9055 39.9945C23.0439 39.3432 21.932 39.1266 20.8538 39.3997C19.7093 39.6905 18.7734 40.471 18.2866 41.5424L14.9086 48.9743C14.8098 49.1914 14.856 49.4469 15.0246 49.6148C15.1337 49.7245 15.28 49.7822 15.4286 49.7822C15.5086 49.7822 15.5892 49.7651 15.6652 49.7308L23.0971 46.3522C24.1679 45.866 24.9484 44.9301 25.2392 43.7856C25.5129 42.7086 25.2963 41.5961 24.6449 40.7339ZM24.1318 43.5045C23.9273 44.3107 23.3776 44.9695 22.6246 45.3124L16.5793 48.0601L19.3271 42.0144C19.6694 41.2613 20.3287 40.7116 21.135 40.5071C21.347 40.4534 21.5601 40.4271 21.7703 40.4271C22.1263 40.4271 22.4742 40.5031 22.7914 40.6511L22.2474 41.6139C22.1211 41.8373 22.1594 42.1178 22.3411 42.299C22.5228 42.4812 22.8034 42.5189 23.0262 42.3927L23.989 41.8481C24.2232 42.3521 24.2764 42.9342 24.1318 43.5045Z" fill="#A27FFF"/>
<path id="Vector_7" d="M49.1147 16.0486C49.0912 15.7704 48.8707 15.5498 48.5924 15.5264C48.3696 15.5086 43.0729 15.1075 36.8437 17.977C36.674 18.0547 36.5534 18.2113 36.5202 18.3953C36.4871 18.5793 36.5466 18.7678 36.6785 18.8998L45.7407 27.9619C45.8487 28.0699 45.9944 28.1293 46.1447 28.1293C46.1783 28.1293 46.2121 28.1264 46.2458 28.1207C46.4298 28.0876 46.5857 27.9671 46.664 27.7973C49.5341 21.5681 49.133 16.2709 49.1147 16.0486ZM45.9595 26.5637L38.0767 18.681C42.6369 16.756 46.6303 16.6234 47.9953 16.6463C48.0181 18.0125 47.8896 21.9933 45.9595 26.5637Z" fill="#A27FFF"/>
<path id="Vector_8" d="M40.0912 24.5479C38.1696 22.6263 35.0437 22.6263 33.1221 24.5479C31.2005 26.4695 31.2005 29.5954 33.1221 31.517C34.0826 32.4781 35.3448 32.9581 36.6064 32.9581C37.8686 32.9581 39.1302 32.4775 40.0912 31.517C42.0128 29.5954 42.0128 26.4694 40.0912 24.5479ZM39.2833 30.709C37.8074 32.1849 35.4059 32.1849 33.9301 30.709C32.4542 29.2332 32.4542 26.8317 33.9301 25.3558C34.6677 24.6181 35.6374 24.249 36.6064 24.249C37.5755 24.249 38.5452 24.6181 39.2834 25.3558C40.7592 26.8317 40.7592 29.2332 39.2833 30.709Z" fill="#A27FFF"/>
<path id="Vector_9" d="M37.7436 29.1685C37.1174 29.7959 36.0981 29.7953 35.4712 29.1685C34.845 28.5417 34.845 27.523 35.4712 26.8961C36.0975 26.2699 37.1168 26.2693 37.7436 26.8961C37.9665 27.1195 38.3288 27.1195 38.5515 26.8961C38.7749 26.6727 38.7749 26.3116 38.5515 26.0882C37.4802 25.0163 35.7352 25.0163 34.6633 26.0882C33.5914 27.1601 33.5914 28.9045 34.6633 29.9764C35.1993 30.5124 35.9038 30.7804 36.6077 30.7804C37.3123 30.7804 38.0162 30.5124 38.5515 29.9764C38.7749 29.753 38.7749 29.3919 38.5515 29.1685C38.3287 28.9451 37.9665 28.9451 37.7436 29.1685Z" fill="#A27FFF"/>
</g>
<defs>
<clipPath id="clip0_1_1056">
<rect width="64" height="64" fill="white" transform="translate(0 0.640015)"/>
</clipPath>
</defs>
</svg>
