<svg width="64" height="65" viewBox="0 0 64 65" fill="none" xmlns="http://www.w3.org/2000/svg">
<g id="hosting-icon.svg" clip-path="url(#clip0_1_1035)">
<path id="Vector" opacity="0.1" d="M32 64.64C49.6731 64.64 64 50.3131 64 32.64C64 14.9669 49.6731 0.640015 32 0.640015C14.3269 0.640015 0 14.9669 0 32.64C0 50.3131 14.3269 64.64 32 64.64Z" fill="#FFB201"/>
<g id="Clip path group">
<mask id="mask0_1_1035" style="mask-type:luminance" maskUnits="userSpaceOnUse" x="16" y="16" width="32" height="33">
<g id="clip0_513_4039">
<path id="Vector_2" d="M48 16.64H16V48.64H48V16.64Z" fill="white"/>
</g>
</mask>
<g mask="url(#mask0_1_1035)">
<g id="Group">
<path id="Vector_3" d="M41.822 26.7641C41.3851 24.4793 40.1652 22.4183 38.3725 20.9359C36.5797 19.4535 34.3263 18.6425 32 18.6425C29.6738 18.6425 27.4203 19.4535 25.6276 20.9359C23.8348 22.4183 22.615 24.4793 22.178 26.7641C20.3324 27.0926 18.6768 28.1008 17.5378 29.5897C16.3988 31.0787 15.8591 32.9404 16.025 34.8076C16.191 36.6749 17.0506 38.4123 18.4343 39.677C19.818 40.9418 21.6254 41.6422 23.5 41.6401H24V39.6401H23.5C22.0726 39.6438 20.6997 39.092 19.6719 38.1015C18.6441 37.1109 18.0419 35.7593 17.993 34.3327C17.944 32.9061 18.452 31.5164 19.4094 30.4577C20.3669 29.399 21.6987 28.7543 23.123 28.6601L23.959 28.6031L24.049 27.7701C24.2624 25.8104 25.192 23.9985 26.6595 22.6822C28.1269 21.3659 30.0287 20.6379 32 20.6379C33.9713 20.6379 35.8732 21.3659 37.3406 22.6822C38.808 23.9985 39.7376 25.8104 39.951 27.7701L40.041 28.6031L40.877 28.6611C42.2985 28.759 43.6264 29.4052 44.5806 30.4633C45.5349 31.5214 46.0409 32.9087 45.992 34.3327C45.9431 35.7567 45.3431 37.1061 44.3185 38.0962C43.2939 39.0863 41.9249 39.6399 40.5 39.6401H40V41.6401H40.5C42.3747 41.6422 44.1821 40.9418 45.5658 39.677C46.9495 38.4123 47.8091 36.6749 47.975 34.8076C48.1409 32.9404 47.6012 31.0787 46.4622 29.5897C45.3232 28.1008 43.6677 27.0926 41.822 26.7641Z" fill="#FFB201"/>
<path id="Vector_4" d="M39 38.64V36.64H36.899C36.77 36.014 36.5215 35.4188 36.167 34.887L37.657 33.397L36.243 31.983L34.753 33.473C34.2212 33.1185 33.626 32.87 33 32.741V30.64H31V32.741C30.374 32.87 29.7788 33.1185 29.247 33.473L27.757 31.983L26.343 33.397L27.833 34.887C27.4785 35.4188 27.23 36.014 27.101 36.64H25V38.64H27.101C27.23 39.266 27.4785 39.8612 27.833 40.393L26.343 41.883L27.757 43.297L29.247 41.807C29.7788 42.1615 30.374 42.41 31 42.539V44.64H33V42.539C33.626 42.41 34.2212 42.1615 34.753 41.807L36.243 43.297L37.657 41.883L36.167 40.393C36.5215 39.8612 36.77 39.266 36.899 38.64H39ZM32 40.64C31.4067 40.64 30.8266 40.4641 30.3333 40.1344C29.8399 39.8048 29.4554 39.3362 29.2284 38.7881C29.0013 38.2399 28.9419 37.6367 29.0576 37.0547C29.1734 36.4728 29.4591 35.9382 29.8787 35.5187C30.2982 35.0991 30.8328 34.8134 31.4147 34.6976C31.9967 34.5819 32.5999 34.6413 33.1481 34.8684C33.6962 35.0954 34.1648 35.4799 34.4944 35.9733C34.8241 36.4666 35 37.0467 35 37.64C34.9992 38.4354 34.6829 39.198 34.1204 39.7604C33.558 40.3229 32.7954 40.6392 32 40.64Z" fill="#FFB201"/>
</g>
</g>
</g>
</g>
<defs>
<clipPath id="clip0_1_1035">
<rect width="64" height="64" fill="white" transform="translate(0 0.640015)"/>
</clipPath>
</defs>
</svg>
