<svg width="65" height="65" viewBox="0 0 65 65" fill="none" xmlns="http://www.w3.org/2000/svg">
<g id="money-icon.svg" clip-path="url(#clip0_1_1016)">
<path id="Vector" opacity="0.1" d="M32.5 64.5901C50.1731 64.5901 64.5 50.2632 64.5 32.5901C64.5 14.917 50.1731 0.590088 32.5 0.590088C14.8269 0.590088 0.5 14.917 0.5 32.5901C0.5 50.2632 14.8269 64.5901 32.5 64.5901Z" fill="#199A93"/>
<path id="Vector_2" fill-rule="evenodd" clip-rule="evenodd" d="M36.2119 33.109C35.9973 32.5023 35.6 31.9771 35.0746 31.6056C34.5492 31.2341 33.9215 31.0346 33.2781 31.0346V30.2568H31.7225V31.0346C30.8973 31.0346 30.106 31.3624 29.5226 31.9459C28.9391 32.5293 28.6113 33.3207 28.6113 34.1458C28.6113 34.9709 28.9391 35.7622 29.5226 36.3457C30.106 36.9291 30.8973 37.2569 31.7225 37.2569V40.3681C31.0458 40.3681 30.4695 39.9364 30.2548 39.3313C30.2229 39.2323 30.1716 39.1407 30.1037 39.0619C30.0358 38.9831 29.9528 38.9187 29.8596 38.8725C29.7665 38.8264 29.665 38.7994 29.5611 38.7931C29.4573 38.7869 29.3533 38.8015 29.2553 38.8361C29.1572 38.8708 29.0671 38.9247 28.9903 38.9948C28.9134 39.0649 28.8514 39.1497 28.8079 39.2441C28.7644 39.3386 28.7403 39.4408 28.737 39.5448C28.7337 39.6487 28.7513 39.7523 28.7887 39.8493C29.0032 40.4559 29.4005 40.9812 29.9259 41.3527C30.4514 41.7242 31.079 41.9236 31.7225 41.9237V42.7014H33.2781V41.9237C34.1032 41.9237 34.8945 41.5959 35.478 41.0124C36.0614 40.429 36.3892 39.6376 36.3892 38.8125C36.3892 37.9874 36.0614 37.196 35.478 36.6126C34.8945 36.0291 34.1032 35.7014 33.2781 35.7014V32.5902C33.5998 32.5901 33.9136 32.6898 34.1763 32.8755C34.439 33.0612 34.6377 33.3237 34.745 33.627C34.8136 33.8215 34.9568 33.9808 35.1429 34.0698C35.2351 34.1138 35.335 34.1393 35.437 34.1447C35.539 34.1502 35.6411 34.1355 35.7374 34.1014C35.8337 34.0674 35.9224 34.0148 35.9984 33.9465C36.0743 33.8782 36.1361 33.7956 36.1802 33.7035C36.2242 33.6113 36.2497 33.5114 36.2551 33.4094C36.2606 33.3074 36.2459 33.2053 36.2119 33.109ZM31.7225 32.5902C31.3099 32.5902 30.9142 32.7541 30.6225 33.0458C30.3308 33.3376 30.1669 33.7332 30.1669 34.1458C30.1669 34.5583 30.3308 34.954 30.6225 35.2457C30.9142 35.5375 31.3099 35.7014 31.7225 35.7014V32.5902ZM33.2781 40.3681C33.6906 40.3681 34.0863 40.2042 34.378 39.9125C34.6697 39.6207 34.8336 39.2251 34.8336 38.8125C34.8336 38.3999 34.6697 38.0043 34.378 37.7125C34.0863 37.4208 33.6906 37.2569 33.2781 37.2569V40.3681Z" fill="#1EBCB4"/>
<path id="Vector_3" fill-rule="evenodd" clip-rule="evenodd" d="M24.0637 20.6287C25.9724 19.6946 29.1038 18.5901 32.5307 18.5901C35.8861 18.5901 38.935 19.6487 40.8336 20.5703L40.9409 20.6225C41.5134 20.9056 41.9754 21.1731 42.3005 21.3901L39.4273 25.5902C46.051 32.3616 51.1672 46.5881 32.5307 46.5881C13.8941 46.5881 18.8727 32.6198 25.5539 25.5902L22.6995 21.3901C22.9196 21.2462 23.1988 21.079 23.5317 20.9017C23.6966 20.813 23.8739 20.7212 24.0637 20.6287ZM37.5809 25.5342L39.8808 22.1718C37.7419 22.3258 35.1969 22.8283 32.7469 23.5376C30.9969 24.0432 29.0524 23.9662 27.2518 23.634C26.7981 23.5499 26.3475 23.4498 25.9008 23.3338L27.3942 25.5326C30.5948 26.6721 34.3795 26.6721 37.5809 25.5342ZM26.4958 26.858C30.2409 28.3047 34.7419 28.3047 38.487 26.8564C40.0502 28.5043 41.3579 30.377 42.3666 32.4122C43.4182 34.5573 43.9906 36.7016 43.8973 38.5497C43.807 40.3331 43.1055 41.8568 41.5032 42.9893C39.8333 44.1692 37.0247 45.0325 32.5299 45.0325C28.0304 45.0325 25.2086 44.184 23.5231 43.0173C21.9092 41.8988 21.2007 40.3961 21.1003 38.6368C20.9953 36.809 21.5553 34.6755 22.603 32.5156C23.6025 30.456 24.997 28.4734 26.4958 26.858ZM25.6014 21.6359C26.2236 21.821 26.8738 21.982 27.5334 22.1041C29.2057 22.4121 30.8826 22.4573 32.3137 22.0427C33.9814 21.5568 35.6777 21.1747 37.3926 20.8986C35.9615 20.4677 34.2877 20.1457 32.5299 20.1457C29.8504 20.1457 27.3514 20.8931 25.6014 21.6359Z" fill="#1EBCB4"/>
</g>
<defs>
<clipPath id="clip0_1_1016">
<rect width="65" height="64" fill="white" transform="translate(0 0.590088)"/>
</clipPath>
</defs>
</svg>
