<svg width="40" height="41" viewBox="0 0 40 41" fill="none" xmlns="http://www.w3.org/2000/svg">
<g id="search-engine-optimization.svg" clip-path="url(#clip0_1_187)">
<g id="Clip path group">
<mask id="mask0_1_187" style="mask-type:luminance" maskUnits="userSpaceOnUse" x="0" y="0" width="39" height="39">
<g id="clip0_1_2">
<path id="Vector" d="M38.1524 0.109863H0V38.2432H38.1524V0.109863Z" fill="white"/>
</g>
</mask>
<g mask="url(#mask0_1_187)">
<g id="Group">
<path id="Vector_2" d="M2.74509 15.2624C1.0945 16.9109 0.117188 19.1151 0.00377833 21.4452C-0.109631 23.7752 0.649017 26.064 2.13172 27.865C3.61442 29.6659 5.71486 30.8499 8.02332 31.1863C10.3318 31.5225 12.6827 30.9867 14.6175 29.6832L22.7241 37.7918C22.9858 38.0596 23.3399 38.2175 23.714 38.2335C24.0879 38.2495 24.4542 38.1225 24.7378 37.8781C25.0214 37.6337 25.2014 37.2905 25.2411 36.9181C25.2805 36.5457 25.1769 36.1724 24.9508 35.8737L24.8079 35.708L16.7755 27.6737C18.2445 25.7903 18.9401 23.4175 18.7203 21.0389C18.5007 18.6604 17.3822 16.4552 15.5929 14.8726C13.8038 13.2901 11.4784 12.4494 9.09086 12.5218C6.7033 12.5942 4.43511 13.5743 2.74509 15.2624ZM19.0974 0.106201C10.0384 0.106201 2.45747 6.4281 0.524141 14.9005C1.65366 13.4671 3.11465 12.3297 4.78128 11.5862C6.59134 8.17081 9.56036 5.51311 13.1546 4.09096L12.9508 4.42239C11.926 6.12334 11.1013 8.25287 10.5222 10.67C11.4727 10.7652 12.4098 10.9824 13.3127 11.3176C14.5165 6.31191 16.7851 2.96525 19.0974 2.96525L19.3165 2.97477C21.7279 3.19572 24.0555 7.00906 25.1374 12.491H15.6194C16.7693 13.2548 17.7698 14.2224 18.5717 15.3462L25.5698 15.348C25.9047 18.5202 25.8184 21.7225 25.3127 24.8718H20.2727C20.1237 25.4202 19.9334 25.9564 19.7032 26.4756L19.4575 26.9937L19.2251 27.4299L19.526 27.729H24.6974C24.3108 29.1556 23.8403 30.4299 23.3032 31.5099L25.4098 33.6185C26.347 31.9842 27.107 29.9842 27.6536 27.7328L32.8403 27.729C31.1359 30.4568 28.6607 32.6177 25.7279 33.9385L26.1565 34.3632L26.3946 34.6299C26.8136 35.1937 27.0517 35.8204 27.1146 36.4452C30.4108 34.9158 33.2007 32.4756 35.1554 29.4126C37.1102 26.3495 38.1481 22.7912 38.147 19.1575C38.147 8.63572 29.6174 0.106201 19.0974 0.106201ZM13.9318 17.3442C14.5337 17.9412 15.0118 18.6511 15.3386 19.4333C15.6656 20.2154 15.8348 21.0545 15.8365 21.9023C15.8382 22.7499 15.6727 23.5897 15.3491 24.3732C15.0254 25.1568 14.5503 25.8688 13.9508 26.4682C13.3514 27.0676 12.6395 27.5427 11.8559 27.8663C11.0724 28.1899 10.2327 28.3556 9.38495 28.3537C8.53722 28.352 7.69819 28.1829 6.91602 27.856C6.13385 27.5292 5.42393 27.0511 4.82699 26.449C3.62796 25.24 2.95678 23.6052 2.96034 21.9023C2.96391 20.1994 3.64193 18.5674 4.846 17.3632C6.05008 16.1592 7.68214 15.4812 9.38495 15.4777C11.0878 15.4741 12.7226 16.1453 13.9318 17.3442ZM28.4422 15.348L34.8384 15.3462L34.8536 15.4032C35.1394 16.609 35.2917 17.8642 35.2917 19.1556C35.2936 21.1076 34.942 23.0436 34.2536 24.8699L28.2079 24.8737C28.4803 23.0642 28.6232 21.1442 28.6232 19.1575C28.6232 17.8547 28.5622 16.5804 28.4422 15.348ZM25.0384 4.08906L25.0822 4.1043C28.9816 5.66094 32.127 8.66647 33.8594 12.491H28.0517C27.4555 9.15191 26.4136 6.24525 25.0384 4.08906Z" fill="white"/>
</g>
</g>
</g>
</g>
<defs>
<clipPath id="clip0_1_187">
<rect width="40" height="40" fill="white" transform="translate(0 0.109863)"/>
</clipPath>
</defs>
</svg>
