<svg width="65" height="65" viewBox="0 0 65 65" fill="none" xmlns="http://www.w3.org/2000/svg">
<g id="seo-icon.svg" clip-path="url(#clip0_1_1071)">
<path id="Vector" opacity="0.1" d="M32.5 64.64C50.1731 64.64 64.5 50.3131 64.5 32.64C64.5 14.9669 50.1731 0.640015 32.5 0.640015C14.8269 0.640015 0.5 14.9669 0.5 32.64C0.5 50.3131 14.8269 64.64 32.5 64.64Z" fill="#FFB201"/>
<path id="Vector_2" d="M21.0878 29.9133C19.9324 31.0673 19.2483 32.6103 19.1689 34.2413C19.0895 35.8723 19.6206 37.4744 20.6585 38.7351C21.6964 39.9958 23.1667 40.8247 24.7826 41.06C26.3985 41.2953 28.0441 40.9203 29.3985 40.008L35.0732 45.684C35.2564 45.8714 35.5042 45.9819 35.766 45.9931C36.0279 46.0044 36.2842 45.9154 36.4827 45.7443C36.6813 45.5733 36.8073 45.333 36.835 45.0723C36.8627 44.8117 36.79 44.5503 36.6318 44.3413L36.5318 44.2253L30.9092 38.6013C31.9375 37.2829 32.4243 35.6219 32.2705 33.9569C32.1167 32.2919 31.3338 30.7483 30.0813 29.6405C28.8289 28.5327 27.2012 27.9442 25.5299 27.9949C23.8586 28.0456 22.2695 28.7317 21.0865 29.9133H21.0878ZM32.5345 19.304C26.1932 19.304 20.8865 23.7293 19.5332 29.66C20.3238 28.6566 21.3465 27.8604 22.5132 27.34C23.7802 24.9492 25.8585 23.0889 28.3745 22.0933L28.2318 22.3253C27.5145 23.516 26.9372 25.0067 26.5318 26.6987C27.1972 26.7653 27.8532 26.9173 28.4852 27.152C29.3278 23.648 30.9158 21.3053 32.5345 21.3053L32.6878 21.312C34.3758 21.4667 36.0052 24.136 36.7625 27.9733H30.0998C30.9048 28.508 31.6052 29.1854 32.1665 29.972L37.0652 29.9733C37.2996 32.1938 37.2391 34.4355 36.8852 36.64H33.3572C33.2529 37.0238 33.1196 37.3991 32.9585 37.7627L32.7865 38.1253L32.6238 38.4307L32.8345 38.64H36.4545C36.1838 39.6387 35.8545 40.5307 35.4785 41.2867L36.9532 42.7627C37.6092 41.6187 38.1412 40.2187 38.5238 38.6427L42.1545 38.64C40.9613 40.5494 39.2287 42.0621 37.1758 42.9867L37.4758 43.284L37.6425 43.4707C37.9358 43.8653 38.1025 44.304 38.1465 44.7413C40.4537 43.6707 42.4067 41.9626 43.775 39.8184C45.1434 37.6743 45.87 35.1836 45.8692 32.64C45.8692 25.2747 39.8985 19.304 32.5345 19.304ZM28.9185 31.3707C29.3398 31.7885 29.6745 32.2855 29.9033 32.833C30.1321 33.3805 30.2506 33.9678 30.2518 34.5612C30.2531 35.1546 30.1371 35.7425 29.9106 36.2909C29.6841 36.8394 29.3515 37.3378 28.9319 37.7574C28.5122 38.177 28.0139 38.5096 27.4654 38.7361C26.9169 38.9626 26.3291 39.0786 25.7357 39.0773C25.1423 39.0761 24.555 38.9577 24.0075 38.7289C23.4599 38.5 22.963 38.1654 22.5452 37.744C21.7058 36.8976 21.236 35.7532 21.2385 34.5612C21.241 33.3693 21.7156 32.2268 22.5585 31.384C23.4013 30.5411 24.5438 30.0665 25.7357 30.064C26.9277 30.0615 28.0721 30.5313 28.9185 31.3707ZM39.0758 29.9733L43.5532 29.972L43.5638 30.012C43.7638 30.856 43.8705 31.7347 43.8705 32.6387C43.8718 34.0049 43.6256 35.3602 43.1438 36.6387L38.9118 36.6413C39.1025 35.3747 39.2025 34.0307 39.2025 32.64C39.2025 31.728 39.1598 30.836 39.0758 29.9733ZM36.6932 22.092L36.7238 22.1027C39.4533 23.1923 41.6552 25.2962 42.8678 27.9733H38.8025C38.3852 25.636 37.6558 23.6027 36.6932 22.0933V22.092Z" fill="#FFB201"/>
</g>
<defs>
<clipPath id="clip0_1_1071">
<rect width="65" height="64" fill="white" transform="translate(0 0.640015)"/>
</clipPath>
</defs>
</svg>
