<svg width="37" height="56" viewBox="0 0 37 56" fill="none" xmlns="http://www.w3.org/2000/svg">
<g id="figma.svg">
<g id="Clip path group">
<mask id="mask0_1_783" style="mask-type:luminance" maskUnits="userSpaceOnUse" x="0" y="0" width="36" height="55">
<g id="clip0_112_325">
<path id="Vector" d="M35.9772 0.86792H0.335999V54.6791H35.9772V0.86792Z" fill="white"/>
</g>
</mask>
<g mask="url(#mask0_1_783)">
<g id="Group">
<path id="Vector_2" d="M18.1566 27.7738C18.1566 22.8711 22.1052 18.8965 26.9761 18.8965C31.847 18.8965 35.7957 22.8711 35.7957 27.7738C35.7957 32.6765 31.847 36.651 26.9761 36.651C22.1052 36.651 18.1566 32.6765 18.1566 27.7738Z" fill="#1ABCFE"/>
<path id="Vector_3" d="M0.517548 45.5278C0.517548 40.6251 4.46621 36.6506 9.33715 36.6506H18.1567V45.5278C18.1567 50.4306 14.2081 54.4051 9.33715 54.4051C4.46621 54.4051 0.517548 50.4306 0.517548 45.5278Z" fill="#0ACF83"/>
<path id="Vector_4" d="M18.1566 1.14185V18.8962H26.9761C31.8471 18.8962 35.7957 14.9218 35.7957 10.019C35.7957 5.11632 31.8471 1.14185 26.9761 1.14185H18.1566Z" fill="#FF7262"/>
<path id="Vector_5" d="M0.517548 10.0191C0.517548 14.9218 4.46621 18.8962 9.33715 18.8962H18.1567V1.14185H9.33715C4.46621 1.14185 0.517548 5.11631 0.517548 10.0191Z" fill="#F24E1E"/>
<path id="Vector_6" d="M0.517548 27.7738C0.517548 32.6765 4.46621 36.651 9.33715 36.651H18.1567V18.8965H9.33715C4.46621 18.8965 0.517548 22.8711 0.517548 27.7738Z" fill="#A259FF"/>
</g>
</g>
</g>
</g>
</svg>
