<svg width="64" height="65" viewBox="0 0 64 65" fill="none" xmlns="http://www.w3.org/2000/svg">
<g id="analytics-icon.svg" clip-path="url(#clip0_1_1079)">
<path id="Vector" opacity="0.1" d="M32 64.64C49.6731 64.64 64 50.3131 64 32.64C64 14.9669 49.6731 0.640015 32 0.640015C14.3269 0.640015 0 14.9669 0 32.64C0 50.3131 14.3269 64.64 32 64.64Z" fill="#1EBCB4"/>
<path id="Vector_2" d="M23.3572 21.9733V38.7352C23.3572 39.5435 23.6783 40.3187 24.2498 40.8902C24.8213 41.4618 25.5965 41.7829 26.4048 41.7829H43.1667" stroke="#1EBCB4" stroke-width="1.8" stroke-linecap="round" stroke-linejoin="round"/>
<path id="Vector_3" d="M26.4048 35.6876L30.9762 31.1162L34.0238 34.1638L41.6429 26.5448" stroke="#1EBCB4" stroke-width="1.8" stroke-linecap="round" stroke-linejoin="round"/>
<path id="Vector_4" d="M41.643 31.1162V26.5448H37.0715" stroke="#1EBCB4" stroke-width="1.8" stroke-linecap="round" stroke-linejoin="round"/>
</g>
<defs>
<clipPath id="clip0_1_1079">
<rect width="64" height="64" fill="white" transform="translate(0 0.640015)"/>
</clipPath>
</defs>
</svg>
