<svg width="65" height="65" viewBox="0 0 65 65" fill="none" xmlns="http://www.w3.org/2000/svg">
<g id="edits-icon.svg" clip-path="url(#clip0_1_1047)">
<path id="Vector" opacity="0.1" d="M32.5 64.64C50.1731 64.64 64.5 50.3131 64.5 32.64C64.5 14.9669 50.1731 0.640015 32.5 0.640015C14.8269 0.640015 0.5 14.9669 0.5 32.64C0.5 50.3131 14.8269 64.64 32.5 64.64Z" fill="#1EBCB4"/>
<path id="Vector_2" d="M38.7992 23.8508L41.6232 26.6734M40.6152 21.3641L32.9792 29.0001C32.5846 29.3941 32.3155 29.8961 32.2058 30.4428L31.5005 33.9734L35.0312 33.2668C35.5778 33.1574 36.0792 32.8894 36.4738 32.4948L44.1098 24.8588C44.3393 24.6293 44.5213 24.3569 44.6455 24.0571C44.7697 23.7573 44.8336 23.436 44.8336 23.1114C44.8336 22.7869 44.7697 22.4656 44.6455 22.1658C44.5213 21.866 44.3393 21.5936 44.1098 21.3641C43.8804 21.1347 43.6079 20.9526 43.3081 20.8284C43.0083 20.7043 42.687 20.6403 42.3625 20.6403C42.038 20.6403 41.7166 20.7043 41.4168 20.8284C41.117 20.9526 40.8446 21.1347 40.6152 21.3641Z" stroke="#1EBCB4" stroke-width="2" stroke-linecap="round" stroke-linejoin="round"/>
<path id="Vector_3" d="M42.167 36.6401V40.6401C42.167 41.3474 41.886 42.0256 41.3859 42.5257C40.8858 43.0258 40.2076 43.3068 39.5003 43.3068H24.8337C24.1264 43.3068 23.4481 43.0258 22.948 42.5257C22.4479 42.0256 22.167 41.3474 22.167 40.6401V25.9735C22.167 25.2662 22.4479 24.5879 22.948 24.0878C23.4481 23.5877 24.1264 23.3068 24.8337 23.3068H28.8337" stroke="#1EBCB4" stroke-width="2" stroke-linecap="round" stroke-linejoin="round"/>
</g>
<defs>
<clipPath id="clip0_1_1047">
<rect width="65" height="64" fill="white" transform="translate(0 0.640015)"/>
</clipPath>
</defs>
</svg>
